<svg xmlns="http://www.w3.org/2000/svg" width="142" height="42" fill="none"><path fill="#fff" d="m6.27 18.89 2.13-1.06 3.37-5.07 1.04-.43 1.1 5.15-1.45.2-1.1-2.1-.83 3.3h3.65l3.79 1 1.51-1 2.55 2.68 1.1-4.93 1.8 1.83 1.1-1.55 1.78-.5 2.62-2.46.41-1.2 2.14.36.9 1.2-1.59 3.38 3.92-2.05v-.98l1.52-.35L39.38 16l1.65-2.05v-1.4l2.69-1.9 1.1-1.63h1.72l3.03-6.27L52.2 0l.96 1.55-1.51 1.97.55 1.27 1.44.28 1.17 5.22v4.37l2.07 2.89 1.03 4.01-3.58-2.32-1.58-6.7-.97.22-.13 4.5-2.62 4.3-.76 6.56 1.8.42.75-.92 1.72 1.98 1.31 5.92-.14 3.8h-1.65l-.62-5.35-1.17 1.62-2.55-.57-2.06-1.76-2.34.85.13 3.8-1.86.5-2.75 2.11-3.3-.42-1.31-.78-2.07.35.7.85-1.66.99-1.31-.64L27.4 42l-3.78-1.9-1.45-3.39-1.24.15-1.45-1.2-.06-.92-4.62-.5-.75 2.55-2.9-1.34-1.44-2.47H6.6l-.34 3.95-1.8.56-.89 3.6-.69-.64L0 32.91l3.44-1.7-.55-3.3-.55-3.39 1.52-2.18L3.37 21l2.07-2.25.83.14Zm45.78 8.31 3.17 4.8 1.03-.43-1.3-1.97-2.9-3.1v.7Zm-32.36-9.72v-1.41l2.41-1.76 2.07-1.06h-2.41l-2.14 1.27-1.3 1.2v1.76h1.37ZM72.48 33.12h3.8v-4.19h2.12c3.2 0 5.35-1.9 5.35-4.93 0-3-2.1-4.98-5.21-4.98h-6.06v14.1Zm3.8-7.16v-3.89h1.35c1.34 0 2.14.72 2.14 1.93 0 1.2-.8 1.96-2.14 1.96H76.3ZM90.04 33.3c3.43 0 5.46-2.2 5.46-5.44 0-3.25-2.03-5.46-5.46-5.46-3.42 0-5.45 2.2-5.45 5.46 0 3.25 2.03 5.45 5.45 5.45Zm.03-2.8c-1.01 0-1.62-1.01-1.62-2.67s.6-2.67 1.62-2.67c.96 0 1.56 1.01 1.56 2.67s-.6 2.67-1.56 2.67ZM102.1 33.3c3.13 0 5.04-1.79 5.08-4.59h-3.51c-.08 1.1-.68 1.7-1.5 1.7-1 0-1.65-.85-1.65-2.58 0-1.74.65-2.59 1.64-2.59.84 0 1.4.6 1.51 1.7h3.5c-.01-2.75-1.97-4.54-5.06-4.54-3.43 0-5.46 2.2-5.46 5.46 0 3.25 2.03 5.45 5.46 5.45ZM113.81 33.3c3.12 0 5.03-1.79 5.07-4.59h-3.5c-.09 1.1-.68 1.7-1.51 1.7-1 0-1.65-.85-1.65-2.58 0-1.74.65-2.59 1.65-2.59.83 0 1.4.6 1.5 1.7h3.51c-.02-2.75-1.97-4.54-5.07-4.54-3.42 0-5.45 2.2-5.45 5.46 0 3.25 2.03 5.45 5.45 5.45ZM124 28.27v-5.73h-3.56v10.58h3.57l2.93-5.76v5.76h3.57V22.54h-3.57l-2.93 5.73ZM138.5 33.12h3.5V22.54h-4.94c-3.03 0-4.95 1.54-4.93 3.7-.01 1.2.7 2.2 1.97 2.79l-2.08 4.09h3.48l1.78-3.5h1.21v3.5Zm0-5.79h-1.35c-1.01 0-1.48-.5-1.46-.96-.02-.44.42-1 1.38-1h1.42v1.96Z"/></svg>