<?xml version="1.0" encoding="utf-8"?>
<!-- Generator: Adobe Illustrator 26.1.0, SVG Export Plug-In . SVG Version: 6.00 Build 0)  -->
<svg version="1.1" id="Layer_1" xmlns="http://www.w3.org/2000/svg" xmlns:xlink="http://www.w3.org/1999/xlink" x="0px" y="0px"
	 viewBox="0 0 32 32" style="enable-background:new 0 0 32 32;" xml:space="preserve">
<style type="text/css">
	.st0{fill:#2A2C2F;}
	.st1{fill:#FFFFFF;}
</style>
<rect class="st0" width="32" height="32"/>
<polygon class="st1" points="10.6,12.3 11.9,11.3 12.9,10.8 11.7,10.8 10.5,11.5 9.9,12.1 9.9,13 10.6,13 "/>
<polygon class="st1" points="29.6,12.7 29.6,10.4 29,7.6 28.2,7.5 28,6.8 28.8,5.8 28.2,4.9 26.9,6.4 25.3,9.7 24.4,9.7 23.8,10.5 
	22.4,11.5 22.4,12.3 21.5,13.4 20.6,12.5 19.8,12.7 19.8,13.2 17.8,14.3 18.6,12.5 18.1,11.8 17,11.7 16.8,12.3 15.4,13.6 
	14.5,13.8 13.9,14.7 12.9,13.7 12.4,16.3 11,14.9 10.2,15.4 8.2,14.9 6.3,14.9 6.7,13.1 7.3,14.3 8.1,14.1 7.5,11.4 6.9,11.7 
	5.2,14.3 4,14.9 3.6,14.8 2.5,16 2.8,16.7 2,17.9 2.3,19.6 2.6,21.4 0.7,22.3 2.3,26.2 2.6,26.6 3.1,24.7 4,24.4 4.2,22.3 5.9,22.3 
	6.6,23.6 8.1,24.3 8.5,23 11,23.2 11,23.7 11.8,24.4 12.4,24.3 13.2,26.1 15.2,27.1 16.5,26.5 17.2,26.8 18.1,26.3 17.7,25.8 
	18.8,25.7 19.5,26.1 21.2,26.3 22.7,25.2 23.6,24.9 23.6,22.9 24.8,22.5 25.9,23.4 27.2,23.7 27.8,22.8 28.2,25.7 29,25.7 
	29.1,23.7 28.4,20.5 27.5,19.5 27.1,20 26.2,19.8 26.6,16.3 28,14 28,11.7 28.5,11.5 29.4,15.1 31.3,16.3 30.7,14.2 "/>
</svg>
