<?xml version="1.0" encoding="utf-8"?>
<!-- Generator: Adobe Illustrator 26.1.0, SVG Export Plug-In . SVG Version: 6.00 Build 0)  -->
<svg version="1.1" id="Layer_1" xmlns="http://www.w3.org/2000/svg" xmlns:xlink="http://www.w3.org/1999/xlink" x="0px" y="0px"
	 viewBox="0 0 512 512" style="enable-background:new 0 0 512 512;" xml:space="preserve">
<style type="text/css">
	.st0{fill:#2A2C2F;}
	.st1{fill:#FFFFFF;}
</style>
<rect class="st0" width="512" height="512"/>
<polygon class="st1" points="169.6,196.8 190.4,180.8 206.4,172.8 187.2,172.8 168,184 158.4,193.6 158.4,208 169.6,208 "/>
<polygon class="st1" points="473.6,203.2 473.6,166.4 464,121.6 451.2,120 448,108.8 460.8,92.8 451.2,78.4 430.4,102.4 
	404.8,155.2 390.4,155.2 380.8,168 358.4,184 358.4,196.8 344,214.4 329.6,200 316.8,203.2 316.8,211.2 284.8,228.8 297.6,200 
	289.6,188.8 272,187.2 268.8,196.8 246.4,217.6 232,220.8 222.4,235.2 206.4,219.2 198.4,260.8 176,238.4 163.2,246.4 131.2,238.4 
	100.8,238.4 107.2,209.6 116.8,228.8 129.6,225.6 120,182.4 110.4,187.2 83.2,228.8 64,238.4 57.6,236.8 40,256 44.8,267.2 
	32,286.4 36.8,313.6 41.6,342.4 11.2,356.8 36.8,419.2 41.6,425.6 49.6,395.2 64,390.4 67.2,356.8 94.4,356.8 105.6,377.6 
	129.6,388.8 136,368 176,371.2 176,379.2 188.8,390.4 198.4,388.8 211.2,417.6 243.2,433.6 264,424 275.2,428.8 289.6,420.8 
	283.2,412.8 300.8,411.2 312,417.6 339.2,420.8 363.2,403.2 377.6,398.4 377.6,366.4 396.8,360 414.4,374.4 435.2,379.2 
	444.8,364.8 451.2,411.2 464,411.2 465.6,379.2 454.4,328 440,312 433.6,320 419.2,316.8 425.6,260.8 448,224 448,187.2 456,184 
	470.4,241.6 500.8,260.8 491.2,227.2 "/>
</svg>
